<?xml version="1.0" encoding="utf-8"?>
<!-- Generator: Adobe Illustrator 19.1.0, SVG Export Plug-In . SVG Version: 6.00 Build 0)  -->
<svg version="1.1" id="Layer_1" xmlns="http://www.w3.org/2000/svg" xmlns:xlink="http://www.w3.org/1999/xlink" x="0px" y="0px"
	 viewBox="0 0 217 67.2" style="enable-background:new 0 0 217 67.2;" xml:space="preserve">
<style type="text/css">
	.st0{fill:#483429;}
	.st1{fill:#463025;}
	.st2{fill:#49342A;}
</style>
<g id="ImipWQ.tif">
	<g>
		<path class="st0" d="M148.2,3.2c1.2-0.5,2.4-0.9,3.6-1.4c5.1-2.2,10.1-2.5,15,0.4c0.7,0.7,1.4,1.5,2,2.2c0.3,2.3,0.9,4.5,0.9,6.8
			c0,2.3-1.6,4.1-3.8,4.7c-2,0.6-3.9,0.2-5.1-1.9c0.2-0.6,0.3-1.1,0.4-1.5c1.2-3.5,0.6-5-2.8-5.9c-1.2-0.4-2.7-0.5-3.9-0.2
			c-4.1,1.2-8.2,2.7-10.6,6.7c-0.2,0.2-0.5,0.4-0.7,0.6c0.2,0,0.5,0,0.7,0.1c4.5,0.3,9.1,0.7,13.7,1c1.4,3.2,1.6,6.1,0.8,10.2
			c-2-2-3.4-3.3-4.6-4.7c-1.9-2.2-4.3-2.5-6.8-2c-2.7,0.6-3.6,3.5-1.4,5.2c1.5,1.2,3.4,2.1,5.3,2.6c4,1.2,7.6,2.8,10.3,8.1
			c1.6-11.6,6.5-17.9,17.7-16.7c1.4,0.6,2.7,1.1,4.1,1.7c1.1,1,2.2,1.9,3.3,2.9c4.8,7.2,5.2,14.9,1.5,22.6c-2.4,4.9-6.4,7.7-12,7.4
			c-5.3-0.3-9.5-2.6-11.9-7.7c-0.8-1.7-1.6-3.5-2.6-5.6c-0.9,1.4-1.5,2.6-2.2,3.7c-3,4.7-7.4,6.6-12.8,5.6c-2.6-0.5-5.1-1-8-1.6
			c-0.3-3.2-2.1-6.6-0.9-10.7c1,0.6,1.9,0.9,2.5,1.5c0.9,1,1.4,2.2,2.3,3.3c2.1,2.6,4.9,3.3,8.1,2.7c1.9-0.4,3.5-1.3,3.9-3.4
			c0.4-2.1-0.9-3.4-2.6-4.4c-0.9-0.5-1.8-0.8-2.8-1.1c-0.6-0.2-1.3-0.2-1.9-0.5c-6.3-2.7-9.6-2.9-8.9-12.6c0-0.5,0-1,0-1.9
			c-4.1,3.9-6.4,8.1-5.7,13.6c0.2,2,0,4-0.1,6c-0.2,3.1,0.1,6,3.4,7.6c0.4,0.2,0.5,1.1,0.7,1.7c-3.5,1.2-9.9,1.3-15.3,0.3
			c0.1-0.8,0.1-1.6,0.2-2.5c2.7-0.6,3.9-2.2,3.7-5c-0.1-1.5,0.2-3,0.1-4.5c-0.1-3.8-0.2-7.5-0.3-11.4c-1.9,0-3.1,0-4,0
			c0.1,2.3,0.3,4.3,0.4,6.5c-5.5,0.7-10.6-0.4-16.2,0.9c0.4,3.6,0.7,7,1.2,10.4c0.3,2.1,1.4,3.7,3.6,4.2c2.5,0.6,4.2-0.7,5.4-2.6
			c1.1-1.8,2-3.7,2.9-5.4c2.4,0.2,3.7,1,2.8,3.5c-0.4,1.1-0.6,2.2-0.9,3.3c-4.7,6.4-10.8,7.9-16.7,4.2c-2.8-1.8-4.6-4.4-5.5-7.4
			c-1-3.5-2.1-7-1-10.7c0.5-1.7,0.4-3.6,0.6-6.2c-2.1,1.4-2.6,2.9-3.1,4.5c-2.2,6.9-4.6,13.8-6.9,20.7c-0.2,0.6-0.3,1.3-0.6,1.9
			c-0.9,1.5-2.7,1.6-3.6,0.1c-0.8-1.4-1.4-3-1.9-4.6c-2.3-6.6-4.5-13.1-6.7-19.7c-0.8-2.3-1.5-4.5-4.4-4.7l0.1,0.1
			c-0.1-2,1.2-4,0-6.1c0.7-1.1,1.8-2.2,0.8-3.5c-0.7-1-1.9-2.3-2.9-2.4c-4.5-0.5-8.9-0.2-12,3.8c-1.2,1-2.5,1.9-3.4,3.2
			c-0.5,0.7-0.4,2-0.5,3c0,0,0.1-1.1,0.1-1.1C51,21,49.8,21.7,49,22.8c-1.4,1.9-2.7,3.8-4.2,5.6c-1.9,2.5-2.8,5.2-2.6,8.3
			c0.2,2.5,0,5,0,7.5c0,3.2,0,6.3,3.4,8.1c0.5,0.3,0.5,1.4,0.8,2.6c-5.2,0-10.1,0-15.4,0c0-1,0-1.9,0-2.8L31,52.1
			c2.4-0.4,3.9-1.7,3.9-4.3c0-4.2,0.1-8.3-0.1-12.5c-0.1-1.8-0.6-3.4-2.4-4.6c-2.2-1.6-2.2-2.3-0.3-4.2c3.2-3,7-4.5,11.8-3.3
			c1.1-2.1,2.1-4.1,3.1-6.1c2-2,4-4,5.9-6c2.3-1.4,4.6-2.8,6.9-4.2c3.1-0.6,6.3-1.7,9.4-1.7c4-0.1,7.5,1.7,9,5.6
			c0.7,1.9,0.5,4.2,0.7,6.3c-0.4,0.7-0.7,1.4-1.1,2.1c-1.1,1-1.1,1.1,0,1.5c1.9,0.2,3.9,0.4,6.2,0.7c-0.5,1.3-1,2.3-1.4,3.4
			c-0.3,0.7-0.9,1.6-0.7,2.3c1.1,4.1,2.5,8.1,3.7,12.1c1.7-2.4,2.3-4.8,3.3-7c1.8-3.6,2.2-6.8-1-9.8c-0.1-0.1,0.2-0.6,0.3-1.1
			c3.2,0,6.5-0.1,9.8,0c2,0.1,3.6-0.4,4.7-2.1c0.7-0.3,1.3-0.7,2-1c0.4-0.1,0.8-0.2,1.1-0.4c6.3-1.8,10.7,1.2,14.3,6
			c2.8-4.8,8.6-7.4,13.4-6c0.8-1.1,1.6-2.3,2.5-3.5c0.3-0.3,0.5-0.7,0.8-1c1.6-1.7,3.2-3.4,4.8-5.1C144.1,6.4,146.1,4.8,148.2,3.2z
			 M181.7,33c-0.5-2.2-0.9-5.3-1.9-8.2c-0.6-1.7-2.1-3-4.2-2.8c-2.1,0.1-3.4,1.2-4.2,3.6c-0.2,0.5-0.3,1-0.3,1.4
			c-0.3,5.1-0.6,10.2,0,15.3c0.4,3.3,1.9,4.7,4.6,4.9c2.8,0.1,4.5-1.2,5.1-4.3C181.3,39.9,181.4,36.9,181.7,33z M111.7,26.9
			c0.2-3.6-0.2-4.6-1.9-4.8c-2-0.2-3.3,1.5-3.3,4.8C108.2,26.9,109.9,26.9,111.7,26.9z M97.8,24.6c-0.1-0.1-0.2-0.2-0.3-0.3
			c0,0.2,0,0.4,0,0.6C97.6,24.8,97.7,24.7,97.8,24.6z"/>
		<path class="st1" d="M15.8,17.1c0.1-1.8,0.2-3.7,0.1-5.5c-0.2-3.2-2.2-4.5-5.1-2.7c-2.2,1.3-4,3.4-6,5c-1.2,1-2.1,3.3-4,1.9
			c-1.6-1.1-0.8-2.7,0-4.4c1-2,1.4-4.3,2.1-6.4c1-2.9,1.6-3.4,4.1-2.9c7.7,1.5,15.5,0.6,23.3,0.8c1.9,0,3.9-0.6,5.9-1
			c2.5,4.5,3.7,9.1,4.6,13.9c-1.3,0.1-2.5,0.2-3.8,0.3c-3.1-5.8-5.5-7.3-11.6-6.5c0,2.5,0,5-0.1,7.6c0.1,8.9,0.2,17.9,0.2,26.8
			c0,2.2,0.8,3.8,3.1,4.4c2,0.5,2.5,2,2.2,3.8l0.1-0.1c-6.6,0-13.2,0-20.6,0c0.5-1.3,0.7-2.7,1.3-2.9c3.7-1.6,4.4-4.5,4.3-8.1
			C15.9,33,15.9,25.1,15.8,17.1z"/>
		<path class="st2" d="M213.8,31.9c-1.6,0.7-2.3,0.2-3-1c-1-1.7-2-3.5-3.5-4.8c-2.7-2.4-6.6-1.3-7.6,1.9c-0.6,2,0.2,3.6,1.6,4.8
			c2,1.7,4.3,3.2,6.3,4.8c3,2.3,6,4.5,7.9,8.1C219,52.4,216,61,211.2,64c-7.2,4.6-15.3,4.2-20.4-1.6c-3.1-3.5-3.7-7.9-1.6-12
			c1.8-3.5,5.3-5.2,9.2-4.3c3.7,0.8,5.3,5.3,2.9,8.3c-1.2,1.5-2.5,1.9-4.3,0.6c-0.8-0.6-2.3-0.8-3.1-0.4c-1.5,0.9-0.7,2.3-0.1,3.5
			c1.6,3.2,4.4,4.1,7.8,4.2c3.4,0.1,5.8-1.1,7.3-4.1c1.5-3,1.3-5.9-0.8-8.4c-1.5-1.8-3.4-3.1-5.2-4.6c-2.4-2-5.1-3.8-7.3-6
			c-3.5-3.4-4.2-11-1.2-14.7c1.8-2.2,4.3-3.8,7.6-3.7c2.4,0.1,4.9,1.1,7.3-0.3c0.4-0.3,2,0.3,2.1,0.7
			C212.6,24.7,214.3,28.1,213.8,31.9z"/>
		<path class="st0" d="M70,24c0,6.8,0,13.6,0.1,20.4c0,2.4-0.3,5,3.2,5.8c1.3,0.3,1.1,2.5-0.3,3.2c-2.4,1.2-4.9,2.4-7.5,0.5
			c-1.7-1.3-3.1-1.1-5-0.1c-4.9,2.4-9.6,1-12.3-3.1c-2.5-3.9-1.8-9.3,2.2-12.6c2.4-1.9,5.3-3.2,8.2-4.4c4.9-2,5.5-4.7,1.2-9
			c-0.8,1-1.6,2-2.3,3c-0.6,1-1.1,2-1.7,3c-0.8,1.3-2.1,1.5-3.5,1.2c-1.7-0.4-2.6-1.6-2.5-3.2c0.1-1.4,0.7-2.8,1.1-4.2
			c0.3-0.9,0.7-1.7,1.1-2.5L52,22.1c1.9-0.5,3.8-0.8,5.6-1.4c3.6-1.1,6.8-0.5,9.9,1.5c0.9,0.6,1.8,1.3,2.6,1.9
			C70.1,24.1,70,24,70,24z M61.4,36.5c-2,1.8-3.8,3-5,4.6c-0.9,1.2-1.2,3.1-1.2,4.6c0,1.8,1.9,3.3,3.7,3.4c2.1,0.1,2.8-1.1,3.3-2.9
			C63.1,43.3,62.8,40.4,61.4,36.5z"/>
		<path class="st2" d="M193.9,17c-1,1-2,2-3,3c-1.1,1.1-2.3,1.7-3.8,1.1c0.7-1.3,1.3-2.6,2.1-3.7c0.9-1.4,1.5-2.8-0.2-3.8
			c-2.5-1.6-1.9-3.9-1.8-6.1c0.3-0.5,0.7-1,1-1.4c0.3-0.5,0.6-1.1,0.9-1.6c3.3-0.4,5,1.9,6.6,4.2c0.1,0.8,0.2,1.7,0.3,2.5
			C195.3,13.1,194.6,15,193.9,17z"/>
	</g>
</g>
</svg>
