<?xml version="1.0" encoding="utf-8"?>
<!-- Generator: Adobe Illustrator 19.1.0, SVG Export Plug-In . SVG Version: 6.00 Build 0)  -->
<svg version="1.1" id="Layer_0_xA0_Image_1_" xmlns="http://www.w3.org/2000/svg" xmlns:xlink="http://www.w3.org/1999/xlink"
	 x="0px" y="0px" viewBox="59 270.5 730 252.5" style="enable-background:new 59 270.5 730 252.5;" xml:space="preserve">
<style type="text/css">
	.st0{fill:#FDD598;}
</style>
<path class="st0" d="M133.2,445.5c-8.7,0-17.3,0-26,0c-3.6,0-4.7-0.8-4.9-3.3c-0.2-2.8,1.3-4.3,4.7-4.7c6-0.7,9.4-3.5,10.5-9.5
	c0.7-4.3,1-8.7,1-13.1c0.1-14.5,0-29,0.2-43.5c0.2-18.7,0.6-37.4,0.8-56.2c0-2.3-0.2-4.8-1.2-6.8c-3.4-6.6-6.9-7.5-15.3-5.5
	c-8.3,2-14.6,7.8-19.8,14.5c-1.5,2-2.8,4.1-4.1,6.2c-1.7,2.6-5.1,3.8-7.9,2.4c-0.8-0.4-1.8-1.8-1.7-2.7c0-2.1,0.3-4.4,1.1-6.3
	c3.6-9.1,7.3-18.2,11.2-27.2c2.2-5,5.7-6.5,9.5-4.2c1.3,0.8,2.5,2,3.5,3.1c1.2,1.3,2.5,1.8,4.4,1.8c8.9,0.1,17.8,0.5,26.7,0.6
	c9.1,0.1,18.1,0.1,27.2,0.1c5.7,0,11.3,0.2,17,0.1c1.4,0,2.8-1.1,4.1-1.8c0.2-0.1,0.3-0.4,0.5-0.5c5-5,10-4.2,12.6,2.4
	c4,10.2,7.7,20.6,11.4,30.9c0.7,2,1.2,4.2-1,5.6c-2,1.3-5.3,1.2-7-0.6c-2-2.3-3.6-4.9-5.4-7.4c-5.7-8-12.6-14.5-22.7-16.3
	c-8.2-1.5-13.5,3.3-13.5,11.7c0,9.7-0.4,19.5-0.4,29.2c-0.2,24.9-0.3,49.8-0.3,74.6c0,3.2,0.4,6.4,0.9,9.6c0.7,4.3,4.5,7.8,9,8.6
	c1,0.2,2,0.3,2.9,0.5c2.2,0.6,3.5,2.6,3.2,4.7c-0.4,2.2-2,2.9-4,2.9c-4.6,0-9.2,0-13.7,0C142.2,445.6,137.7,445.6,133.2,445.5
	C133.2,445.6,133.2,445.6,133.2,445.5z"/>
<path class="st0" d="M736,509.3c-5.8-0.9-11.7-1-17-3c-8.7-3.2-17.8-6.6-22.6-15.7c-2.4-4.7-3.7-9.7-3.2-14.9
	c0.4-3.8,0.9-7.6,2-11.2c3-9.7,9.8-16.3,20.4-16.5c6-0.1,12,0.6,16.6,5.3c2,2.1,2.5,4.7,2.5,7.4c-0.1,4.4-0.2,8.8-3.3,12.5
	c-1.4,1.6-3.1,2.5-5,2.1c-3.5-0.8-6.9-1.8-9-5.1c-2.1-3.4-8.1-3.2-10.3,0.2c-1.7,2.6-2.2,5.4-1.7,8.3c1.1,7,4.2,12.6,9.8,17.3
	c5.1,4.2,10.7,4.9,16.7,4.8c5.9-0.1,11.6-1.4,16.9-4c5.8-2.8,10.7-6.9,14-12.5c4-6.7,3.3-14,0.4-20.9c-3.7-9-10.8-14.8-18.9-19.6
	c-7.6-4.5-15.6-8.5-21.9-14.8c-3-3-5.5-6.6-8.1-10c-1.2-1.6-2.2-3.3-3.2-5.1c-7-12.8-4-24.8,3.3-36.2c4.7-7.4,12.4-9.1,20.4-9.4
	c7.8-0.2,15.4,1,22.5,4.8c2.9,1.6,6,0.8,9-0.4c4.1-1.7,5.6-1.1,6.6,3.3c1.3,5.8,2.1,11.6,3.2,17.4c0.4,2.2,1,4.4,1.1,6.6
	c0.1,1-0.7,2.1-1.1,3.2c-1.1-0.5-2.7-0.8-3.3-1.7c-1.1-1.9-1.7-4.1-2.5-6.2c-3.2-8-8.2-14.3-16.7-17.1c-2-0.7-4.2-1-6.4-1
	c-5.7,0-11.3,0.8-16.1,4.3c-4,2.8-5.3,7-4.6,11.4c1.1,7.2,4.8,13.2,10.6,17.5c5.9,4.4,12.4,8,18.6,12.1c8.8,6,17.3,12.3,22.5,21.9
	c2.5,4.6,4.5,9.5,4.5,14.9c0.1,4.9,0.3,9.9-0.1,14.7c-0.3,3.2-1.3,6.4-2.6,9.3c-5.6,11.7-14.5,19.8-27.2,23.2
	C747.2,508,741.6,508.4,736,509.3z"/>
<path class="st0" d="M648.8,460.1c-17.6-0.7-30.7-8.7-39.4-24c-9-15.8-9.7-32.4-3.6-49.2c5.2-14,14.4-24.7,29-29.7
	c8.9-3,18-3.3,26.9,0c19,7,29.2,21.1,32.4,40.8c1.6,9.8,0.9,19.5-2.7,28.7c-6.5,16.8-17.5,28.9-35.9,32.7c-0.7,0.1-1.3,0.3-2,0.3
	C651.9,460,650.4,460,648.8,460.1z M670.5,403.6c-0.5-3.3-1.1-8.9-2.2-14.4c-1.4-7.1-4.3-13.6-9.5-18.9c-5.8-5.9-14.6-6-20.2,0.1
	c-3.6,3.9-6.5,8.4-8.1,13.6c-4.9,15.5-5.3,31.1-0.4,46.7c1.7,5.4,4.3,10.4,8.6,14.5c5.6,5.3,13,5.7,18.6,0.3
	c2.7-2.6,5.1-5.8,6.8-9.1C668.9,426.8,670.3,416.5,670.5,403.6z"/>
<path class="st0" d="M295.3,403.4c0,10.1-0.1,20.1,0.1,30.2c0.1,6.4,2.7,12.2,10.4,14c1.5,0.3,3.3,1.8,3.7,3.1c0.3,1.1-0.9,3-2,4.1
	c-4,3.8-8.9,4.5-14.2,3.8c-5.7-0.8-10.6-3.3-15.2-6.5c-1.8-1.2-3.2-1.3-5.3-0.5c-5.6,2.1-11.2,4.6-17,5.6
	c-10.8,1.8-20.2-1.7-27.2-10.2c-2.3-2.8-3.8-6.7-4.6-10.4c-2.1-9.6-0.2-18.6,5.6-26.5c3.5-4.7,8.7-7.4,14.1-9.5
	c9.9-4,19.7-8.1,29.6-12c2.2-0.9,3.4-1.9,3.2-4.5c-0.4-4.7-0.4-9.4-0.8-14.1c-0.3-3.8-2.5-6.4-6.2-7.3c-4.3-1.1-8.2-0.3-11.3,3.4
	c-2.6,3.2-3.6,7.1-4.5,11c-0.8,3.6-2.6,5.5-6.1,5.7c-2.6,0.1-5.2,0.1-7.7,0c-4.7-0.2-7.6-3.3-7.3-8c0.6-8.6,5.4-14.6,13-18.1
	c10.5-4.8,21.6-5.6,32.8-3.1c10.6,2.4,17.5,11.1,17.4,21.5c-0.1,4.7,0.1,9.5,0.1,14.2s0,9.5,0,14.2
	C295.6,403.4,295.4,403.4,295.3,403.4z M276,409.6C276,409.6,276.1,409.6,276,409.6c0-0.9,0-1.8,0.1-2.7c0.2-2.3-0.8-3-3-2.7
	c-3.2,0.6-6.4,0.8-9.5,1.7c-9.7,2.7-15.4,9.8-16,19.9c-0.4,6.9,3.3,14.2,10.9,15.4c3.3,0.5,6.8,0.2,10.1-0.2
	c4.7-0.7,7.4-4.1,7.4-8.9C276.1,424.6,276,417.1,276,409.6z"/>
<path class="st0" d="M204.2,456.1c-9.7,0-19.5,0-29.2,0c-0.1,0-0.2,0-0.2,0c-1.8-0.1-4.1,0-4.1-2.5c0-2.3,2-2.8,3.9-2.9
	c3.5-0.2,5.7-2.2,6.3-5.4c0.7-3.6,1.1-7.2,1.2-10.9c0.2-15.4,0.4-30.8,0.4-46.2c0-5.6-2-10.2-8.5-11c-1.1-0.1-2.7-1.3-3-2.4
	c-0.3-0.9,0.6-2.6,1.4-3.3c1.5-1.4,3.4-2.4,5.2-3.5c6.2-3.8,12.3-7.6,18.5-11.3c0.8-0.5,1.7-1,2.7-1.4c3.3-1.1,5-0.4,6.4,2.7
	c1.7,3.7,1.6,3.5,4.3,0.8c9.1-9,17.9-18.3,27.6-26.8c11.6-10.2,24.2-19.1,38.8-24.6c12.8-4.8,25.7-4.9,38.2,0.6
	c10.3,4.6,15.4,15.9,12.7,26.8c-1.1,4.6-2.6,9-5.6,13c-4,5.4-11.2,4.6-15.1,1.5c-3.2-2.6-3.5-6-1.1-10.3c2.9-5.2,2.5-10.1-1.9-14
	c-2.3-2.1-5.5-3.5-8.5-4.3c-8.8-2.4-17.3-1-25.6,2.3c-11.7,4.6-21.6,11.8-30.5,20.5c-10.8,10.6-20.2,22.3-28.5,34.9
	c-1.9,2.8-3.8,5.7-5.6,8.6c-0.5,0.8-0.7,1.9-0.7,2.8c-0.2,11.5-0.3,22.9-0.4,34.4c0,5.9-0.1,11.8,0.2,17.7c0.3,4.9,2.7,7.3,7.4,8.5
	c0.6,0.1,1.3,0.1,1.7,0.4c0.9,0.9,2.2,1.9,2.1,2.8c-0.1,0.8-1.6,2.2-2.6,2.3C209.5,456.3,206.8,456,204.2,456.1L204.2,456.1z"/>
<path class="st0" d="M506.1,352.9c3.7-3.9,7-7.7,10.6-11.1c9.3-8.5,18.5-17,28.1-25c9.1-7.6,19.3-13.6,30.5-17.7
	c12.6-4.6,25.2-4.4,37.4,1.3c9.6,4.5,15.6,16.4,12.4,26.3c-1.2,3.9-2.5,7.9-4.3,11.7c-2.9,6-13.2,6.9-17.3,1.6c-2.1-2.7-2-6,0.1-9.3
	c3.2-4.9,1.9-11.2-2.9-14.7c-6.7-4.8-14.4-5-22.1-4c-10.7,1.4-20,6.4-28.7,12.7c-8.6,6.2-16.2,13.3-22.8,21.5
	c-4.4,5.3-8.8,10.6-12.9,16.2c-3.9,5.3-7.6,10.7-10.8,16.4c-1.2,2.1-0.8,5.2-0.9,7.8c-0.2,12.8-0.4,25.6-0.5,38.4
	c0,3.4,0,6.8,0.4,10.2c0.5,4.5,2.6,6.6,7.1,7.6c0.5,0.1,1,0.2,1.5,0.3c1.7,0.4,2.9,1.6,2.4,3.2c-0.3,0.9-1.8,2-2.8,2.1
	c-2.8,0.3-5.7,0.2-8.5,0.2c-9.6,0-19.1,0-28.7,0c-0.8,0-1.8,0.1-2.4-0.3c-0.8-0.5-1.7-1.5-1.8-2.4c-0.1-0.7,0.8-1.8,1.5-2.3
	s1.7-0.5,2.6-0.7c3.9-0.6,7-3.5,7.2-7.5c0.4-8.4,0.7-16.8,0.9-25.1c0.2-8.7,0.3-17.5,0.4-26.2c0-2.8-0.1-5.7-0.4-8.5
	c-0.3-3.3-3.9-6.6-7.2-7c-1.7-0.2-3.2-0.4-3.6-2.4c-0.5-1.9,0.7-3,2.1-3.9c8-5,15.9-10.1,24-14.9c3.6-2.2,6.3-1.2,8.1,2.6
	C505,350.9,505.5,351.7,506.1,352.9z"/>
<path class="st0" d="M441.8,388.1c-8.2,0-16.3,0.1-24.5,0c-2.5,0-3.4,1-3.4,3.4c0,7.6-0.3,15.1,0,22.7c0.4,8,2,15.8,6.7,22.7
	c5.5,7.9,15.5,9.3,23.5,3.8c7.3-5,11.3-12.2,14.8-19.9c0.5-1.1,1.8-2.6,2.6-2.5c2.1,0.3,4.2,1.2,6.2,2.2c0.4,0.2,0.2,2-0.2,3
	c-3,9.1-8.2,16.8-15.6,23c-6.1,5.2-13.1,8.2-21.2,8.4c-7.6,0.1-14.6-1.9-20.8-6.5c-11.3-8.2-17.1-19.7-20.1-32.9
	c-2.6-11.6-2.1-23.2,1.5-34.3c4.4-13.6,11.9-25.1,25.4-31.5c12.3-5.8,25.7-2.9,35.5,5.1c4.1,3.3,7.4,7.4,9.8,11.7
	c3.1,5.5,5,11.7,7.1,17.8c1,2.9,0,3.7-3.1,3.7C458.1,388.1,450,388,441.8,388.1L441.8,388.1z M431,376.5c3.2,0,6.3,0,9.5,0
	c1.5,0,2.2-0.7,2-2.1c-0.3-2.5-0.6-5-1.2-7.4c-1.1-4.8-5.2-8.3-10.3-8.7c-4.9-0.4-8.9,1.9-10.6,6.9c-0.9,2.7-0.7,5.9-1,8.8
	c-0.2,1.8,0.7,2.5,2.5,2.5C425,376.4,428,376.5,431,376.5z"/>
<path class="st0" d="M563.8,445.5c-7.6-0.1-14.8-1.5-21.6-5.2c-2.6-1.5-5.4-1.3-8.2-0.1c-4.5,1.8-6.7,0.6-7.4-4.1
	c-1.2-7.7-2.3-15.5-3.4-23.2c-0.2-1.4-0.6-3.1,1.3-3.6c1.9-0.5,2.9,0.8,3.8,2.4c2.4,4.2,4.6,8.5,7.6,12.2c7.2,9,23,13.2,33.7,9.9
	c7.9-2.5,12.5-14.4,6.1-21c-2.6-2.6-5.4-5.3-8.6-7.1c-4.8-2.7-10.1-4.7-15.2-7c-10.6-4.7-18.8-11.8-23.4-22.7
	c-1.8-4.4-2.2-8.8-1.8-13.4c0.7-7.6,2.9-14.7,8.6-20.2c5.3-5.2,12-7.4,19.2-7.8c4.1-0.2,8.3,0,12.4,0.5c2.6,0.3,5.2,1.2,7.6,2.3
	c4.3,2,8.3,2.9,12.9,0.9c3.6-1.6,4.9-1,6.2,2.8c0.9,2.7,1.3,5.5,1.8,8.3c0.9,5.2,1.8,10.3,2.7,15.5c0.3,1.5,0.9,3.3-1,3.9
	c-1.9,0.6-3.2-0.6-4.2-2.3c-1.8-3.1-3.4-6.4-5.5-9.2c-6.3-8.1-14.8-11.7-24.9-12.2c-5.7-0.3-11.1,0.3-15.7,4.2
	c-4.5,3.7-5.4,12.2-1.7,16.9c4.6,5.9,11,9,17.6,11.8c6.1,2.6,12.4,5,17.6,9.3c7.2,6,12.8,13.2,14.3,22.7c0.9,6.1,0.1,12.2-2.4,17.8
	c-1.3,3.1-2.9,6.2-5.1,8.7C581.8,442.8,574.1,445.6,563.8,445.5z"/>
<path class="st0" d="M354.3,419.9c2-5.1,4-10.2,5.9-15.3c3.6-9.9,7.3-19.9,10.7-29.8c0.7-2.1,1-4.4,1-6.6c0.1-3.2-1.3-5.6-4.4-6.9
	c-1.7-0.7-2.5-1.9-2.1-3.7c0.4-1.8,1.9-2,3.3-2c7.7,0,15.3,0,23,0.1c1.4,0,3,0.4,2.8,2.1c-0.1,1.1-0.9,2.8-1.7,3.1
	c-4.6,1.6-6.5,5.4-8.1,9.3c-4.5,11-8.7,22.2-13.1,33.2c-4.4,10.9-8.9,21.7-13.3,32.6c-2.4,5.9-4.8,11.7-6.9,17.6
	c-0.9,2.5-2.4,3.4-4.8,3.4c-2.4,0.1-3.4-1.4-4.1-3.3c-4-11.4-8-22.8-12-34.2c-3.3-9.3-6.7-18.5-9.9-27.7c-2.3-6.4-4.4-12.9-6.6-19.4
	c-0.8-2.3-1.7-4.5-2.8-6.7c-1.4-2.7-3.6-4.5-6.7-5.2c-1.5-0.4-3-1.1-2.3-2.8c0.4-1,1.8-2.1,2.8-2.2c6.1-0.3,12.1-0.4,18.2-0.4
	c5.9,0,11.8,0.2,17.7,0.3c1.1,0,2.3-0.2,3.2,0.2c1,0.4,2.4,1.3,2.5,2.1c0.1,0.9-1.2,1.9-1.9,2.8c-0.1,0.1-0.3,0.1-0.5,0.2
	c-6.1,2-7.7,4.3-6,10.6c2.8,9.9,6.1,19.7,9.2,29.6c1.8,5.6,3.6,11.3,5.4,16.9c0.2,0.7,0.5,1.4,0.7,2.1
	C353.8,419.9,354,419.9,354.3,419.9z"/>
<path class="st0" d="M713.5,331.9c0,12.6-6,21.8-16.1,28.8c-1.2,0.9-2.4,1.8-3.7,2.6c-0.5,0.3-1.2,0.2-1.8,0.2
	c-0.1-0.6-0.4-1.4-0.1-1.8c0.9-1.9,2.2-3.6,3-5.5c1.7-4,3.2-8,4.7-12c0.7-1.8-0.8-2.3-2-2.9c-5.9-3.2-8.5-8.4-7.5-14.9
	c0.9-5.3,5.6-9,10.9-8.5C709.4,318.7,713.2,323.6,713.5,331.9z"/>
</svg>
